<svg width="349" height="73" viewBox="0 0 349 73" fill="none" xmlns="http://www.w3.org/2000/svg">
<g clip-path="url(#clip0_7012_42753)">
<path d="M15.4795 41.904C15.4795 44.4919 15.4795 48.1005 18.93 48.1005C22.3805 48.1005 22.3805 44.7291 22.3805 40.8904C22.3805 35.4774 22.2224 33.443 16.184 33.443H13.9915V24.0332H16.184C20.339 24.0332 21.9852 23.1705 21.9852 16.2695C21.9852 14.077 21.827 11.2519 18.7719 11.2519C15.7167 11.2519 15.4004 13.6816 15.4004 18.1529H1.13829C1.76369 5.29255 7.8021 1.37478 20.1089 1.37478C32.4158 1.37478 37.1962 6.85966 37.1962 16.4277C37.1962 21.4453 34.9246 26.772 29.4325 27.8719V28.03C35.4709 29.2808 38.0588 34.4566 38.0588 40.495C38.0588 53.2763 31.0068 57.9776 18.8509 57.9776C8.58565 57.9704 -0.119716 54.7571 0.275656 39.7833H15.4795V41.904Z" fill="#425537"/>
<path d="M39.9424 14.4652H55.1534V56.8778H39.9424V14.4652ZM39.9424 0.274902H55.1534V11.0937H39.9424V0.274902Z" fill="#425537"/>
<path d="M100.384 28.8135C100.384 25.6002 99.3631 24.6585 97.4078 24.6585C95.2944 24.6585 94.3527 26.3838 94.3527 28.8135V56.8777H79.1417V28.8135C79.1417 25.6002 78.1209 24.6585 76.1656 24.6585C74.0522 24.6585 73.1105 26.3838 73.1105 28.8135V56.8777H57.8994V14.4651H72.636V19.3246H72.7942C75.0657 15.1696 78.9116 13.3653 84.0011 13.3653C88.0771 13.3653 91.9158 15.0115 94.1155 19.3246C96.308 15.1696 100.154 13.3653 105.251 13.3653C110.656 13.3653 115.602 16.3413 115.602 24.105V56.8705H100.391V28.8135H100.384Z" fill="#425537"/>
<path d="M136.363 24.6513C133.308 24.6513 132.912 27.6274 132.912 35.7074C132.912 43.7873 133.3 46.6843 136.363 46.6843C139.425 46.6843 139.813 43.6292 139.813 35.7074C139.813 27.7856 139.418 24.6513 136.363 24.6513ZM117.938 14.4579H132.912V19.3174H133.07C133.696 17.283 135.112 13.3581 141.776 13.3581C155.024 13.3581 155.024 26.2903 155.024 36.3256C155.024 48.3233 153.299 57.9632 142.717 57.9632C138.642 57.9632 134.803 55.7707 133.308 51.9248H133.149V70.6582H117.938V14.4579Z" fill="#425537"/>
<path d="M176.82 36.3328C175.878 36.9582 174.707 37.3535 173.06 37.9789C170.552 38.9207 170.163 40.8759 170.163 43.3919C170.163 45.9079 171.105 47.626 173.219 47.626C176.123 47.626 176.827 44.88 176.827 42.4502V36.3328H176.82ZM190.615 50.6021C190.615 52.8737 191.082 54.9152 192.024 56.8705H177.755C177.208 55.3825 177.05 53.8945 177.05 52.3992L176.892 52.3202C175.088 56.4752 171.328 57.9632 166.936 57.9632C158.784 57.9632 155.412 53.65 155.412 45.4191C155.412 36.0093 159.805 33.3495 165.527 32.0915L172.586 30.4453C175.72 29.7408 176.82 28.7991 176.82 26.0531C176.82 23.9397 175.569 22.7607 173.923 22.7607C170.71 22.7607 170.235 25.1905 170.235 27.6202H156.908C156.908 17.9803 161.846 13.3509 173.995 13.3509C187.869 13.3509 190.615 18.9939 190.615 25.5787V50.6021Z" fill="#425537"/>
<path d="M214.524 29.2808C214.524 24.9676 213.741 23.2424 211.153 23.2424C208.328 23.2424 207.702 24.9676 207.702 35.6283C207.702 46.2889 207.939 48.0933 211.074 48.0933C213.971 48.0933 214.761 46.0517 214.761 38.6834H228.556C228.556 45.5845 227.535 50.2858 224.789 53.3409C222.043 56.4752 217.658 57.9632 211.074 57.9632C194.375 57.9632 192.491 47.6116 192.491 35.6211C192.491 23.6306 194.375 13.3581 211.074 13.3581C224.948 13.3581 228.556 18.5339 228.556 31.2289H214.524V29.2664V29.2808Z" fill="#425537"/>
<path d="M231.46 2.00018H246.671V14.4652H252.005V24.3423H246.671V43.2339C246.671 45.9799 247.067 47.1516 249.568 47.1516C250.589 47.1516 251.452 47.0726 251.998 46.9144V57.0287C250.747 57.266 246.743 57.496 244.472 57.496C235.766 57.496 231.46 57.2588 231.46 47.6189V24.3423H226.838V14.4652H231.46V2.00018Z" fill="#425537"/>
<path d="M269.243 48.0933C271.99 48.0933 272.615 45.5054 272.615 35.6283C272.615 25.7512 271.99 23.1633 269.243 23.1633C266.497 23.1633 265.872 25.7512 265.872 35.6283C265.872 45.5054 266.497 48.0933 269.243 48.0933ZM287.826 35.6283C287.826 47.6188 285.943 57.9704 269.243 57.9704C252.544 57.9704 250.661 47.6188 250.661 35.6283C250.661 23.6377 252.544 13.3653 269.243 13.3653C285.943 13.3653 287.826 23.7168 287.826 35.6283Z" fill="#425537"/>
<path d="M305.762 56.8705C307.085 56.8705 308.4 56.8921 309.723 56.8705C312.879 56.8058 315.057 55.289 316.25 52.3777C317.99 48.1364 319.65 46.9862 324.186 46.9072C328.255 46.8425 331.181 44.4702 331.634 40.8831C332.079 37.3392 329.707 34.0252 326.149 33.2201C322.526 32.4006 319.197 34.284 317.796 37.9574C316.365 41.6882 314.41 43.0325 310.391 43.0325C307.631 43.0325 304.863 42.9894 302.103 43.0181C297.919 43.0541 294.763 46.0948 294.778 50.0198C294.792 53.916 297.977 56.8633 302.196 56.8849C303.39 56.8849 304.583 56.8849 305.776 56.8849L305.762 56.8705Z" fill="#425537"/>
<path d="M306.035 38.6547C307.487 38.5469 309.305 38.8488 311.117 38.4534C313.568 37.9071 315.272 36.5053 316.214 34.1762C318.025 29.7265 319.592 28.6985 324.667 28.6194C328.233 28.5619 331.123 26.1034 331.612 22.7032C332.079 19.454 330.088 16.2695 326.925 15.1912C323.179 13.9188 319.485 15.6009 317.989 19.2671C316.192 23.6665 314.474 24.8167 309.715 24.8095C307.142 24.8095 304.568 24.7735 301.988 24.7951C297.89 24.8239 294.821 27.7568 294.763 31.653C294.705 35.3336 297.768 38.439 301.722 38.6475C303.037 38.7194 304.36 38.6619 306.042 38.6619L306.035 38.6547Z" fill="#425537"/>
<path d="M305.913 20.295C307.293 20.295 308.673 20.3166 310.046 20.2878C313.619 20.2088 316.408 17.5634 316.76 13.9475C317.091 10.5761 314.733 7.29088 311.283 6.70861C307.811 6.12633 304.267 6.16228 300.794 6.5864C296.891 7.06804 294.627 10.3388 295.008 14.2566C295.346 17.7575 298.207 20.2447 301.959 20.2878C303.275 20.3022 304.59 20.2878 305.906 20.2878L305.913 20.295Z" fill="#425537"/>
<path d="M344.961 19.6121C345.098 19.5114 345.169 19.3605 345.169 19.1664C345.169 18.9723 345.105 18.8213 344.961 18.7207C344.824 18.62 344.623 18.5697 344.364 18.5697H343.768V19.763H344.364C344.623 19.763 344.824 19.7127 344.961 19.6121ZM342.596 17.5561H344.364C344.947 17.5561 345.421 17.6999 345.788 17.9946C346.154 18.2822 346.341 18.6632 346.341 19.116C346.341 19.5114 346.19 19.8133 345.881 20.0218C345.572 20.2303 345.133 20.3237 344.551 20.3093L345.011 20.1728C345.407 20.1728 345.723 20.2878 345.953 20.5322C346.183 20.7694 346.312 21.1001 346.341 21.5314L346.413 22.5666H345.22L345.148 21.4451C345.119 21.2295 345.04 21.0641 344.918 20.9491C344.796 20.8341 344.609 20.7766 344.364 20.7766H343.768V22.5666H342.596V17.5561ZM346.463 23.5514C347.067 23.2063 347.542 22.7319 347.887 22.1281C348.232 21.5242 348.404 20.8413 348.404 20.0793C348.404 19.3173 348.232 18.6272 347.887 18.0234C347.542 17.4195 347.067 16.9451 346.463 16.6C345.86 16.255 345.177 16.0825 344.415 16.0825C343.653 16.0825 342.963 16.255 342.359 16.6C341.755 16.9451 341.28 17.4195 340.935 18.0234C340.59 18.6272 340.418 19.3101 340.418 20.0793C340.418 20.8485 340.59 21.5242 340.935 22.1281C341.28 22.7319 341.755 23.2063 342.359 23.5514C342.963 23.8964 343.645 24.069 344.415 24.069C345.184 24.069 345.86 23.8964 346.463 23.5514ZM341.863 24.3781C341.115 23.9611 340.526 23.3717 340.109 22.6241C339.685 21.8765 339.476 21.0282 339.476 20.0793C339.476 19.1304 339.685 18.2822 340.109 17.5346C340.526 16.7869 341.115 16.1975 341.863 15.7805C342.61 15.3636 343.459 15.1479 344.407 15.1479C345.356 15.1479 346.205 15.3564 346.952 15.7805C347.7 16.1975 348.289 16.7869 348.706 17.5346C349.123 18.2822 349.339 19.1304 349.339 20.0793C349.339 21.0282 349.13 21.8765 348.706 22.6241C348.289 23.3717 347.7 23.9611 346.952 24.3781C346.205 24.8022 345.356 25.0107 344.407 25.0107C343.459 25.0107 342.61 24.8022 341.863 24.3781Z" fill="#425537"/>
</g>
<defs>
<clipPath id="clip0_7012_42753">
<rect width="349" height="73" fill="white"/>
</clipPath>
</defs>
</svg>
