<?xml version="1.0" encoding="UTF-8"?> <svg xmlns="http://www.w3.org/2000/svg" width="225" height="43" viewBox="0 0 225 43" fill="none"><path d="M210.06 12.174H199.265V31.6129H210.06V12.174Z" fill="#FF5F00"></path><path d="M199.952 21.8952C199.952 17.9532 201.793 14.4404 204.662 12.1775C202.563 10.5224 199.917 9.53345 197.038 9.53345C190.225 9.53345 184.703 15.0653 184.703 21.8952C184.703 28.7251 190.225 34.257 197.038 34.257C199.917 34.257 202.563 33.268 204.662 31.6129C201.793 29.35 199.952 25.8372 199.952 21.8952Z" fill="#EB001B"></path><path d="M223.443 29.5526V29.1543H223.605V29.0719H223.196V29.1543H223.357V29.5526H223.443ZM224.233 29.5526V29.0719H224.11L223.965 29.4015L223.821 29.0719H223.697V29.5526H223.787V29.192L223.921 29.5045H224.013L224.147 29.192V29.556H224.237L224.233 29.5526Z" fill="#F79E1B"></path><path d="M224.622 21.8952C224.622 28.7217 219.1 34.257 212.287 34.257C209.407 34.257 206.762 33.268 204.662 31.6129C207.531 29.35 209.373 25.8372 209.373 21.8952C209.373 17.9532 207.531 14.4404 204.662 12.1775C206.762 10.5224 209.407 9.53345 212.287 9.53345C219.1 9.53345 224.622 15.0688 224.622 21.8952Z" fill="#F79E1B"></path><line x1="171.846" y1="-6.39395e-09" x2="171.846" y2="42.1277" stroke="#838BA0" stroke-width="0.25"></line><g clip-path="url(#clip0_1703_635)"><path d="M31.8373 34.1137H37.4119C37.5186 34.1137 37.604 34.0294 37.604 33.9239V13.4023C37.604 13.2968 37.5186 13.2125 37.4119 13.2125H31.8373C31.7306 13.2125 31.6452 13.2968 31.6452 13.4023V33.9239C31.6452 34.0294 31.7306 34.1137 31.8373 34.1137Z" fill="#1400A1"></path><path d="M105.046 21.7134C104.905 21.7134 104.814 21.5748 104.869 21.4482C105.731 19.3689 107.798 17.9044 110.212 17.9044C112.626 17.9044 114.689 19.3689 115.552 21.4482C115.604 21.5748 115.512 21.7134 115.375 21.7134H105.046ZM111.733 12.9171C104.826 11.995 98.9528 17.4614 99.3064 24.1844C99.599 29.7322 104.022 34.0987 109.63 34.3849C113.851 34.5989 117.585 32.4413 119.581 29.1355C119.645 29.03 119.59 28.8944 119.472 28.8553C118.097 28.4213 116.149 27.7644 114.762 27.2913C114.689 27.2672 114.607 27.2913 114.558 27.3485C113.501 28.5509 111.943 29.3103 110.206 29.3103C107.792 29.3103 105.725 27.8458 104.866 25.7665C104.814 25.6399 104.905 25.5013 105.043 25.5013H120.788C120.883 25.5013 120.965 25.432 120.98 25.3416C121.072 24.7811 121.117 24.2055 121.12 23.6179C121.127 18.254 117.106 13.6374 111.73 12.9171" fill="#1400A1"></path><path d="M67.3244 33.9841H72.899C73.0057 33.9841 73.0911 33.8998 73.0911 33.7943V13.4023C73.0911 13.2968 73.0057 13.2125 72.899 13.2125H67.3244C67.2177 13.2125 67.1324 13.2968 67.1324 13.4023V33.7943C67.1324 33.8998 67.2177 33.9841 67.3244 33.9841Z" fill="#1400A1"></path><path d="M89.303 12.8147C86.2825 12.8147 84.5208 14.4028 83.1493 16.1476V13.3933C83.1493 13.2878 83.0639 13.2034 82.9572 13.2034H77.3856C77.2789 13.2034 77.1936 13.2878 77.1936 13.3933V33.7973C77.1936 33.9028 77.2789 33.9872 77.3856 33.9872H82.9572C83.0639 33.9872 83.1493 33.9028 83.1493 33.7973V22.3914C83.1493 19.601 84.597 18.1666 86.8738 18.1666C89.1506 18.1666 90.4765 19.601 90.4765 22.3914V33.7973C90.4765 33.9028 90.5618 33.9872 90.6685 33.9872H96.2432C96.3499 33.9872 96.4352 33.9028 96.4352 33.7973V20.5291C96.4352 15.7618 93.8079 12.8147 89.3 12.8147" fill="#1400A1"></path><path d="M129.975 17.3951V13.3993C129.975 13.2938 129.889 13.2094 129.783 13.2094H124.208C124.101 13.2094 124.016 13.2938 124.016 13.3993V33.7943C124.016 33.8998 124.101 33.9841 124.208 33.9841H129.783C129.889 33.9841 129.975 33.8998 129.975 33.7943V26.3119C129.962 21.2885 132.492 18.938 136.482 18.9802C136.589 18.9802 136.68 18.8958 136.68 18.7903V13.0075C136.68 12.9051 136.595 12.8177 136.491 12.8147C133.084 12.7333 131.173 14.5775 129.978 17.3951" fill="#1400A1"></path><path d="M51.8439 29.2922C48.29 29.5694 45.3457 26.6585 45.6231 23.1478C45.8425 20.3845 48.1041 18.1425 50.899 17.9195C54.456 17.6362 57.4064 20.5502 57.126 24.0699C56.9035 26.8363 54.6389 29.0752 51.8439 29.2922ZM56.8547 14.2702C55.1692 13.2998 53.1972 12.7635 51.0941 12.8177C45.2695 12.9654 40.5391 17.7055 40.4629 23.4642C40.3837 29.4881 45.3 34.397 51.3776 34.397C53.4959 34.397 55.474 33.7973 57.1473 32.7637V33.7913C57.1473 33.8968 57.2327 33.9811 57.3393 33.9811H62.911C63.0176 33.9811 63.103 33.8968 63.103 33.7913V4.57893C63.103 4.47346 63.0176 4.38909 62.911 4.38909H57.3393C57.2327 4.38909 57.1473 4.47346 57.1473 4.57893V14.1075C57.1473 14.2551 56.9858 14.3455 56.8547 14.2702Z" fill="#1400A1"></path><path d="M149.021 29.3103C145.833 29.3103 143.251 26.7549 143.251 23.6058C143.251 20.4568 145.836 17.9014 149.021 17.9014C152.206 17.9014 154.791 20.4538 154.791 23.6058C154.791 26.7579 152.206 29.3103 149.021 29.3103ZM149.021 12.8147C142.992 12.8147 138.104 17.6452 138.104 23.6058C138.104 29.5664 142.989 34.4 149.021 34.4C155.053 34.4 159.936 29.5664 159.936 23.6058C159.936 17.6452 155.05 12.8147 149.021 12.8147Z" fill="#1400A1"></path><path d="M34.6231 4.15404C32.8583 4.15404 31.4258 5.57036 31.4258 7.31514C31.4258 9.05993 32.8553 10.4762 34.6231 10.4762C36.3909 10.4762 37.8204 9.05993 37.8204 7.31514C37.8204 5.57036 36.3878 4.15404 34.6231 4.15404Z" fill="#1400A1"></path><path d="M70.1132 4.15404C68.3485 4.15404 66.9159 5.57036 66.9159 7.31514C66.9159 9.05993 68.3454 10.4762 70.1132 10.4762C71.881 10.4762 73.3075 9.05993 73.3075 7.31514C73.3075 5.57036 71.878 4.15404 70.1132 4.15404Z" fill="#1400A1"></path><path d="M13.6624 24.7449L6.0822 13.2305C6.04563 13.1763 5.98467 13.1431 5.92066 13.1431H0.300266C0.193588 13.1431 0.108246 13.2275 0.108246 13.333V33.9239C0.108246 34.0293 0.193588 34.1137 0.300266 34.1137H5.83227C5.93895 34.1137 6.02429 34.0293 6.02429 33.9239V22.747C6.02429 22.5572 6.27422 22.4848 6.37785 22.6415L13.6624 33.6707C13.7386 33.7853 13.9093 33.7853 13.9855 33.6707L21.2701 22.6385C21.3737 22.4788 21.6236 22.5541 21.6236 22.744V33.9239C21.6236 34.0293 21.709 34.1137 21.8156 34.1137H27.3476C27.4543 34.1137 27.5397 34.0293 27.5397 33.9239V13.333C27.5397 13.2275 27.4543 13.1431 27.3476 13.1431H21.7273C21.6633 13.1431 21.6023 13.1763 21.5657 13.2305L13.9824 24.7479C13.9063 24.8624 13.7356 24.8624 13.6594 24.7479" fill="#1400A1"></path></g><defs><clipPath id="clip0_1703_635"><rect width="160" height="30.5155" fill="white" transform="translate(0 4)"></rect></clipPath></defs></svg> 